<svg xmlns="http://www.w3.org/2000/svg" viewBox="0 0 512 512"><path d="M137.829 62.485a7.5 7.5 0 0 0 7.5-7.5V40.717c0-4.142-3.357-7.5-7.5-7.5s-7.5 3.358-7.5 7.5v14.267a7.5 7.5 0 0 0 7.5 7.501zM130.329 171.911v14.267c0 4.142 3.357 7.5 7.5 7.5s7.5-3.358 7.5-7.5v-14.267c0-4.142-3.357-7.5-7.5-7.5s-7.5 3.358-7.5 7.5zM91.186 77.411a7.5 7.5 0 1 0 10.606-10.607L91.703 56.716a7.5 7.5 0 0 0-10.607 0 7.5 7.5 0 0 0 .001 10.607l10.089 10.088zM184.474 149.484a7.502 7.502 0 0 0-10.608 10.607l10.089 10.089a7.502 7.502 0 0 0 10.608-10.607l-10.089-10.089zM65.099 120.948h14.268c4.143 0 7.5-3.358 7.5-7.5s-3.357-7.5-7.5-7.5H65.099c-4.143 0-7.5 3.358-7.5 7.5s3.357 7.5 7.5 7.5zM188.792 113.448a7.5 7.5 0 0 0 7.5 7.5h14.268c4.143 0 7.5-3.358 7.5-7.5s-3.357-7.5-7.5-7.5h-14.268a7.5 7.5 0 0 0-7.5 7.5zM91.185 149.484l-10.089 10.089c-4.741 4.741-1.316 12.804 5.304 12.804a7.478 7.478 0 0 0 5.304-2.197l10.089-10.089a7.5 7.5 0 1 0-10.608-10.607zM184.473 77.411l10.089-10.088a7.5 7.5 0 0 0 .001-10.607 7.5 7.5 0 0 0-10.607 0l-10.09 10.088a7.5 7.5 0 0 0 10.607 10.607zM511.98 453.889c-.553-13.77-13.389-24.985-27.765-22.628-5.776-11.045 19.465 39.324-84.221-168.046l-35.54-71.08c-7.053-14.107-27.176-14.06-34.205 0a759647.95 759647.95 0 0 1-28.283 56.564l-42.528-85.056c-6.4-12.806-24.695-12.806-31.097 0l-34.863 69.727c-1.475 2.949-5.697 2.971-7.182 0-6.403-12.805-24.696-12.804-31.098 0L98.806 346.159l-1.528-3.057c-4.727-9.453-18.147-9.356-22.825 0v-.002.001L14.111 463.783H7.5c-4.143 0-7.5 3.358-7.5 7.5s3.357 7.5 7.5 7.5h377.738c4.143 0 7.5-3.358 7.5-7.5s-3.357-7.5-7.5-7.5h-83.082a5.999 5.999 0 0 1-6-6.088c.047-3.287 3.097-6.287 6.659-5.875 5.714.663 10.841-3.095 11.917-8.742 1.28-6.696 7.161-11.549 13.976-11.549 5.014 0 9.795 2.694 12.369 7.213 2.468 4.334 7.493 6.545 12.232 5.505 1.09-.239 3.6-1.345 7.051-.232 8.77 2.829 10.445-5.056 18.902-3.375 5.891 1.175 11.559-2.819 12.348-8.724 1.544-11.552 11.501-20.263 23.161-20.263 8.419 0 16.226 4.576 20.371 11.941 2.406 4.275 6.992 6.727 11.666 6.519a12.333 12.333 0 0 0 3.224-.578c8.9-2.855 18.148 1.875 21.551 10.09a11.582 11.582 0 0 0 14.014 6.679c5.628-1.663 11.172 2.635 11.395 8.185a8.913 8.913 0 0 1-8.912 9.294h-67.839c-4.143 0-7.5 3.358-7.5 7.5s3.357 7.5 7.5 7.5h67.839c13.576 0 24.445-11.255 23.9-24.894zM343.666 198.842c1.523-3.043 5.855-3.031 7.371 0l33.149 66.299-26.435 27.01a1.741 1.741 0 0 1-2.374.102l-16.021-13.786c-7.153-6.157-17.969-5.191-23.918 2.145l-8.589 10.595a1.732 1.732 0 0 1-2.527.18l-4.737-4.382 44.081-88.163zM85.864 353.819l20.472 40.944-10.889 11.126-12.005-10.33c-5.353-4.606-12.871-4.541-18.063-.774l20.485-40.966zM30.883 463.783l21.909-43.819c10.749 2.692 15.566-5.822 21.189-12.757l11.976 10.305c5.82 5.009 14.58 4.623 19.942-.854l7.535-7.699 27.413 54.824H30.883zm163.542 0h-36.807l-50.427-100.854 61.426-122.85c.883-1.765 3.381-1.766 4.264.001 7.01 14.02 27.012 14.005 34.016 0l34.863-69.729c.883-1.765 3.38-1.765 4.263 0l47.56 95.119c-4.25 8.496-90.959 181.916-99.158 198.313zm260.099-50.071a32.386 32.386 0 0 0-7.212 1.002c-7.014-11.22-19.342-18.062-32.54-18.062-17.6 0-32.837 12.088-37.15 28.777a26.481 26.481 0 0 0-14.337 3.832 25.127 25.127 0 0 0-10.666-.295c-5.44-7.733-14.369-12.438-23.91-12.438-12.809 0-24 8.346-27.832 20.292-10.777.654-19.562 9.577-19.719 20.661v.001c-.029 2.058.302 4.373.862 6.299h-70.822L292.6 300.976l1.538 1.423h.001c7.09 6.558 18.279 5.76 24.365-1.746l8.589-10.594a1.732 1.732 0 0 1 2.481-.223l16.022 13.787c6.672 5.74 16.722 5.309 22.878-.98l22.811-23.308 67.26 134.519a32.814 32.814 0 0 0-4.021-.142zM137.829 158.322c16.641 0 31.833-9.141 39.648-23.854a7.502 7.502 0 0 0-13.249-7.038c-5.205 9.802-15.321 15.89-26.399 15.89-16.472 0-29.873-13.401-29.873-29.873s13.401-29.873 29.873-29.873c11.078 0 21.193 6.088 26.399 15.89a7.501 7.501 0 0 0 13.249-7.038c-7.814-14.714-23.007-23.854-39.648-23.854-24.743 0-44.874 20.13-44.874 44.874s20.131 44.876 44.874 44.876z"/></svg>